<?xml version="1.0" standalone="no"?>
<!DOCTYPE svg PUBLIC "-//W3C//DTD SVG 20010904//EN"
 "http://www.w3.org/TR/2001/REC-SVG-20010904/DTD/svg10.dtd">
<svg version="1.0" xmlns="http://www.w3.org/2000/svg"
 width="512.000000pt" height="512.000000pt" viewBox="0 0 512.000000 512.000000"
 preserveAspectRatio="xMidYMid meet">
<metadata>
Created by potrace 1.14, written by Peter Selinger 2001-2017
</metadata>
<g transform="translate(0.000000,512.000000) scale(0.100000,-0.100000)"
fill="#000000" stroke="none">
<path d="M3839 4796 c-2 -2 -22 -6 -44 -9 -62 -9 -155 -40 -475 -159 -162 -60
-342 -127 -400 -148 -208 -75 -705 -261 -725 -269 -11 -5 -119 -46 -240 -90
-121 -44 -258 -95 -305 -112 -47 -17 -222 -82 -390 -144 -168 -63 -404 -150
-525 -195 -260 -96 -310 -119 -390 -175 -147 -104 -243 -246 -299 -439 -55
-188 -55 -347 -2 -556 43 -172 36 -145 80 -301 31 -111 35 -141 37 -264 5
-271 57 -454 185 -650 125 -192 338 -355 554 -424 182 -59 77 -55 1645 -58
902 -2 1466 0 1510 6 161 23 327 88 476 187 101 67 271 239 347 350 148 219
239 487 238 697 -1 70 -4 81 -25 98 -23 19 -72 19 -2210 20 -1202 0 -2179 3
-2171 6 8 3 42 16 75 28 33 13 137 51 230 85 94 34 179 65 190 70 11 4 103 38
205 75 102 37 194 71 205 76 11 4 70 26 130 48 61 22 227 83 370 137 143 53
352 129 465 170 113 41 214 79 225 84 11 5 121 45 245 90 124 44 235 85 247
90 13 5 184 69 380 141 197 72 397 146 445 165 49 19 92 34 97 34 5 0 25 7 45
15 20 8 39 16 43 17 5 0 23 7 41 15 30 13 33 12 41 -9 14 -36 78 -189 95 -229
18 -43 36 -59 67 -61 49 -2 60 3 78 33 21 34 17 65 -19 144 -34 75 -80 188
-78 190 2 1 62 24 133 50 235 86 240 92 191 212 -13 32 -57 139 -96 238 -85
211 -103 249 -165 341 -52 76 -168 194 -239 243 -63 43 -178 97 -251 117 -53
14 -256 29 -266 20z"/>
</g>
</svg>
